<svg width="1920" height="743" viewBox="0 0 1920 743" fill="none" xmlns="http://www.w3.org/2000/svg">
<mask id="mask0_271_7" style="mask-type:luminance" maskUnits="userSpaceOnUse" x="0" y="0" width="1920" height="743">
<path d="M0.00012207 0.000167852L1920 0L1920 742L0.000186938 742L0.00012207 0.000167852Z" fill="white"/>
</mask>
<g mask="url(#mask0_271_7)">
<path d="M3086.32 1371.03C3064.4 1248.63 2940.56 1175.67 2821.04 1161.43C2701.52 1147.03 2579.76 1175.03 2458.96 1175.03C2135.28 1174.87 1830.16 952.147 1724.24 638.707C1690.32 538.227 1675.44 431.187 1642.32 330.387C1609.2 229.587 1553.04 131.507 1461.84 83.5067C1330.64 14.5467 1166.32 67.6667 1034 144.787C901.68 221.907 777.68 323.987 630.96 359.347C438.159 405.747 238 325.907 90.4796 197.107C-56.8805 68.3068 -161.04 -104.813 -262.8 -275.053" stroke="#D4E8F7" stroke-miterlimit="10"/>
<path d="M3093.52 1359.19C3069.52 1237.43 2946 1164.63 2826.32 1149.91C2774.64 1143.51 2722.32 1145.11 2670 1149.43C2601.36 1155.03 2532.56 1164.95 2464.24 1166.39C2324.88 1169.43 2189.04 1133.75 2069.68 1064.47C1977.52 1011.03 1895.44 940.467 1830 855.827C1783.12 795.667 1745.84 727.827 1719.76 654.227C1708.08 621.267 1698.48 587.507 1689.68 553.427C1671.76 484.147 1657.04 413.747 1633.84 346.707C1607.44 270.707 1567.6 197.107 1508.4 147.027C1490 131.347 1470 117.907 1448.08 107.347C1356.08 63.1866 1249.68 78.3866 1147.92 115.987C1103.92 132.307 1060.72 152.627 1020.56 174.547C975.599 199.027 931.599 225.427 887.759 250.547C801.679 300.147 716.72 345.747 624.72 362.387C564.88 373.107 505.84 370.387 447.44 357.267C328.72 330.707 212.079 259.827 114.799 169.427C88.0794 144.627 62.6394 118.547 37.9994 91.3467C-71.4406 -29.4533 -162.96 -169.133 -253.2 -300.813" stroke="#D4E8F7" stroke-miterlimit="10"/>
<path d="M3100.72 1347.19C3074.48 1226.07 2951.44 1153.27 2831.6 1138.07C2779.76 1131.51 2727.44 1133.11 2674.96 1137.59C2606.32 1143.51 2537.52 1154.39 2469.36 1157.43C2330.32 1163.67 2194.64 1133.75 2074.16 1067.35C1981.04 1016.15 1897.68 948.947 1829.68 867.507C1781.04 809.267 1742.32 742.547 1715.12 669.427C1702.96 636.787 1693.04 603.027 1683.76 568.947C1665.04 499.827 1649.52 429.267 1625.36 362.867C1597.84 287.347 1556.56 215.507 1495.44 167.827C1476.56 153.107 1456.4 140.467 1434.32 130.867C1341.84 90.7067 1236.88 109.587 1135.28 147.347C1091.12 163.667 1047.6 183.347 1006.96 203.827C961.52 226.707 917.04 250.707 873.36 272.787C787.6 316.627 704.88 355.187 618.16 364.787C562 371.027 508.4 363.827 454.48 347.187C345.2 313.107 234.32 235.827 138.64 141.267C112.4 115.347 86.9598 88.1468 62.1598 60.3068C-48.4002 -64.1732 -146.8 -202.573 -243.92 -327.213" stroke="#D4E8F7" stroke-miterlimit="10"/>
<path d="M3107.92 1335.19C3079.44 1214.71 2956.88 1141.91 2836.88 1126.39C2785.04 1119.67 2732.4 1121.11 2679.92 1125.91C2611.12 1132.31 2542.64 1144.15 2474.48 1148.63C2335.6 1158.07 2200.4 1133.91 2078.64 1070.39C1984.56 1021.43 1899.76 957.587 1829.36 879.347C1778.8 823.027 1738.8 757.427 1710.48 684.627C1697.84 652.147 1687.44 618.707 1677.68 584.467C1658.16 515.507 1641.84 444.787 1616.72 378.867C1588.08 303.827 1545.52 233.747 1482.32 188.467C1462.96 174.707 1442.64 162.867 1420.56 154.387C1327.76 118.227 1224.08 140.947 1122.64 178.707C1078.32 195.187 1034.64 214.067 993.52 233.107C947.6 254.387 902.8 275.987 859.12 295.187C773.68 332.947 693.04 364.787 611.76 367.347C559.12 368.947 510.96 357.587 461.84 337.267C362 295.987 256.88 211.827 162.96 113.267C137.2 86.0667 111.92 58.0667 86.9598 29.4267C-24.5603 -98.7333 -129.84 -235.853 -234.16 -353.293" stroke="#D4E8F7" stroke-miterlimit="10"/>
<path d="M3115.12 1323.19C3084.4 1203.51 2962.32 1130.55 2842 1114.71C2790 1107.83 2737.36 1109.11 2684.72 1114.39C2615.92 1121.11 2547.44 1133.91 2479.44 1139.99C2340.88 1152.47 2205.84 1134.23 2083.12 1073.75C1987.92 1027.03 1901.68 966.707 1829.2 891.507C1776.56 837.107 1735.44 772.627 1706.16 700.307C1693.04 668.147 1682.16 634.707 1672.08 600.467C1651.76 531.507 1634.64 460.947 1608.4 395.347C1578.64 320.947 1534.8 252.307 1469.52 209.747C1449.68 196.787 1429.2 186.067 1406.96 178.387C1313.68 146.227 1211.6 172.787 1110 210.547C1065.68 227.187 1021.52 245.267 980.08 263.027C933.68 282.867 888.4 301.907 845.04 318.227C759.92 350.227 681.36 374.867 605.68 370.547C556.56 367.667 513.84 351.827 469.36 327.827C378.8 279.187 279.76 188.467 187.28 85.9067C161.84 57.5867 136.72 28.4667 111.6 -0.973349C-0.880506 -132.653 -113.04 -268.813 -224.4 -378.893" stroke="#D4E8F7" stroke-miterlimit="10"/>
<path d="M3122.32 1311.19C3089.36 1192.15 2967.76 1119.19 2847.28 1103.03C2795.28 1095.99 2742.48 1097.27 2689.68 1102.71C2620.88 1109.75 2552.4 1123.51 2484.56 1131.19C2346.32 1146.87 2211.6 1134.23 2087.6 1076.79C1991.44 1032.31 1903.76 975.507 1828.88 903.507C1774.32 851.027 1731.92 787.507 1701.52 715.667C1687.92 683.667 1676.56 650.387 1666.16 616.307C1645.04 547.507 1627.12 476.787 1599.92 411.827C1569.04 337.907 1523.92 271.027 1456.56 230.867C1436.4 218.867 1415.6 208.947 1393.36 202.227C1299.76 174.227 1198.96 204.307 1097.52 242.387C1053.04 259.027 1008.56 276.467 966.64 292.787C919.76 311.027 874.16 327.667 830.8 340.947C746 367.027 669.2 384.787 599.28 373.427C553.52 366.067 516.56 345.747 476.559 318.227C395.279 262.067 302.16 164.947 211.28 58.2267C186.32 28.7867 161.2 -1.29328 135.92 -31.5333C22.4796 -166.893 -96.7207 -301.773 -215.121 -404.653" stroke="#D4E8F7" stroke-miterlimit="10"/>
<path d="M3129.68 1299.35C3094.48 1180.95 2973.36 1108.15 2852.72 1091.51C2800.56 1084.31 2747.6 1085.43 2694.8 1091.19C2625.84 1098.71 2557.68 1113.43 2489.84 1122.55C2351.76 1141.27 2217.36 1134.55 2092.24 1079.99C1995.12 1037.91 1905.84 984.467 1828.72 915.507C1772.08 864.947 1728.56 802.547 1697.04 731.187C1683.12 699.347 1671.28 666.227 1660.24 632.147C1638.32 563.507 1619.44 492.627 1591.44 428.147C1559.44 354.867 1513.04 289.427 1443.6 251.827C1422.96 240.627 1402 231.667 1379.6 225.907C1285.68 201.907 1186.32 235.827 1084.88 273.907C1040.24 290.707 995.44 307.347 953.2 322.227C905.84 338.867 859.92 353.107 816.56 363.507C732.08 383.827 656.88 394.227 592.88 376.147C550.32 364.147 519.12 339.507 483.92 308.307C412.08 244.787 324.72 140.947 235.44 30.2266C210.96 -0.493383 185.84 -31.5333 160.4 -62.4133C45.8396 -201.453 -80.0803 -335.053 -205.52 -430.893" stroke="#D4E8F7" stroke-miterlimit="10"/>
<path d="M3136.88 1287.35C3099.44 1169.75 2978.8 1096.79 2858 1079.67C2805.84 1072.31 2752.72 1073.43 2699.76 1079.51C2630.8 1087.35 2562.64 1103.03 2494.96 1113.75C2357.2 1135.67 2222.96 1134.71 2096.72 1083.03C1998.64 1043.19 1907.76 993.267 1828.4 927.347C1769.84 878.707 1725.04 817.427 1692.4 746.547C1678 715.027 1665.68 681.907 1654.32 647.827C1631.6 579.187 1611.92 508.307 1582.96 444.307C1549.84 371.507 1502.16 307.667 1430.64 272.787C1409.68 262.547 1388.4 254.387 1366 249.587C1271.6 229.587 1173.68 267.347 1072.4 305.427C1027.76 322.227 982.48 338.227 939.92 351.667C892.24 366.707 845.68 378.547 802.48 385.907C718.32 400.307 644.72 403.347 586.8 378.707C547.28 361.907 522.16 333.107 491.44 298.387C428.88 227.347 347.44 117.107 259.76 2.22661C235.6 -29.6134 210.8 -61.6134 185.04 -93.2934C69.5201 -236.013 -63.4399 -368.493 -195.92 -456.973" stroke="#D4E8F7" stroke-miterlimit="10"/>
<path d="M3144.08 1275.35C3104.4 1158.39 2984.24 1085.43 2863.12 1067.99C2810.8 1060.47 2757.52 1061.43 2704.56 1067.83C2635.6 1076.15 2567.44 1092.79 2500.08 1104.95C2362.64 1130.07 2228.72 1134.87 2101.2 1086.23C2002.16 1048.63 1909.84 1002.23 1828.08 939.347C1767.44 892.627 1721.52 832.467 1687.76 761.907C1672.88 730.547 1660.08 697.587 1648.24 663.507C1624.72 595.027 1604.24 523.987 1574.32 460.467C1540.08 388.147 1491.28 325.907 1417.52 293.587C1396.08 284.147 1374.64 276.947 1352.08 273.267C1257.36 257.267 1160.88 298.707 1059.6 336.947C1014.8 353.907 969.2 369.107 926.16 381.267C878 394.867 831.12 404.147 787.92 408.627C704.08 417.267 631.76 412.627 580.08 381.587C543.6 359.827 524.4 327.027 498.48 288.787C445.36 210.227 369.68 93.5866 283.76 -25.4534C260.08 -58.4134 235.28 -91.5334 209.36 -123.853C92.8799 -270.253 -46.9597 -401.453 -186.48 -482.733" stroke="#D4E8F7" stroke-miterlimit="10"/>
<path d="M3151.28 1263.35C3109.36 1147.03 2989.68 1074.07 2868.4 1056.31C2816.08 1048.63 2762.64 1049.43 2709.52 1056.15C2640.56 1064.79 2572.56 1082.39 2505.2 1096.31C2367.92 1124.47 2234.32 1135.19 2105.68 1089.43C2005.68 1054.07 1911.76 1011.19 1827.76 951.507C1765.04 906.867 1718 847.667 1683.12 777.587C1667.76 746.547 1654.64 713.587 1642.32 679.507C1617.84 611.187 1596.72 539.987 1565.84 477.107C1530.48 405.427 1480.4 344.627 1404.56 315.027C1382.8 306.547 1361.04 300.307 1338.48 297.427C1243.44 285.427 1148.24 330.707 1047.12 368.947C1002.16 385.907 956.4 400.467 912.88 411.187C864.24 423.187 817.04 430.067 774 431.507C690.48 434.227 619.76 421.587 574 384.627C540.72 357.747 527.44 321.107 506 279.187C462.16 193.107 392.56 69.9067 308.08 -53.1334C284.72 -87.2134 260.08 -121.293 234 -154.573C116.56 -304.653 -30.3198 -434.573 -176.88 -508.813" stroke="#D4E8F7" stroke-miterlimit="10"/>
<path d="M3158.48 1251.35C3114.48 1135.67 2995.12 1062.87 2873.68 1044.63C2821.2 1036.79 2767.76 1037.59 2714.64 1044.47C2645.52 1053.59 2577.68 1071.99 2510.48 1087.51C2373.52 1118.87 2240.24 1135.19 2110.32 1092.47C2009.2 1059.35 1913.68 1020.15 1827.6 963.347C1762.8 920.627 1714.64 862.547 1678.64 792.787C1662.8 761.907 1649.2 729.106 1636.56 695.026C1611.28 626.706 1589.36 555.507 1557.52 493.107C1521.04 421.907 1469.84 362.547 1391.76 335.667C1369.52 327.987 1347.6 322.707 1324.88 320.787C1229.36 312.947 1135.76 361.747 1034.64 400.307C989.68 417.427 943.44 431.187 899.6 440.467C850.48 450.867 802.96 455.507 759.92 453.907C676.88 450.867 607.6 429.747 567.92 387.187C537.68 354.867 530.32 314.707 513.68 269.267C479.28 175.667 415.44 46.0666 332.56 -81.1334C309.68 -116.493 285.2 -151.373 258.8 -185.453C140.24 -339.213 -13.3601 -467.853 -167.12 -534.893" stroke="#D4E8F7" stroke-miterlimit="10"/>
<path d="M3165.68 1239.51C3119.44 1124.63 3000.56 1051.67 2878.96 1033.11C2826.48 1025.11 2772.72 1025.75 2719.6 1033.11C2650.48 1042.55 2582.64 1062.07 2515.6 1079.03C2378.8 1113.59 2245.84 1135.67 2114.8 1095.83C2012.72 1065.11 1915.6 1029.27 1827.28 975.507C1760.56 934.867 1711.12 877.747 1674 808.467C1657.68 777.907 1643.6 745.107 1630.48 711.027C1604.4 642.867 1581.68 571.667 1548.72 509.587C1511.12 439.027 1458.8 381.107 1378.32 356.787C1355.76 349.907 1333.52 345.587 1310.64 344.627C1214.8 340.787 1122.48 393.427 1021.52 431.987C976.4 449.267 929.84 462.227 885.52 470.227C835.92 479.027 787.92 481.267 745.04 476.787C662.32 467.987 594.96 438.387 560.88 390.387C534.16 352.627 532.4 308.947 520.24 259.827C495.28 158.707 437.2 22.7066 355.92 -108.493C333.52 -144.973 309.04 -180.973 282.64 -215.693C163.12 -372.973 2.64005 -500.653 -158.16 -560.333" stroke="#D4E8F7" stroke-miterlimit="10"/>
<path d="M3172.88 1227.51C3124.4 1113.27 3006 1040.31 2884.08 1021.27C2831.44 1013.11 2777.68 1013.59 2724.4 1021.27C2655.28 1031.03 2587.6 1051.51 2520.56 1070.07C2384.08 1107.67 2251.28 1135.67 2119.28 1098.87C2016.24 1070.39 1917.52 1038.23 1827.12 987.347C1758.32 948.627 1707.76 892.627 1669.52 823.827C1652.72 793.427 1638.16 760.787 1624.72 726.707C1597.84 658.707 1574.32 587.347 1540.4 525.907C1501.84 455.827 1448.24 399.347 1365.52 377.907C1342.48 371.987 1320.08 368.467 1297.2 368.467C1201.04 368.627 1110.16 425.107 1009.2 463.667C963.92 480.947 917.04 493.267 872.4 499.827C822.32 507.187 774 506.867 731.12 499.347C648.72 484.787 583.44 446.547 554.8 393.107C531.6 349.747 535.44 302.707 527.92 250.067C512.4 141.427 460.08 -1.13335 380.4 -136.333C358.32 -173.933 334 -210.893 307.44 -246.413C186.96 -407.373 19.4404 -533.773 -148.4 -586.253" stroke="#D4E8F7" stroke-miterlimit="10"/>
<path d="M3180.24 1215.51C3129.52 1101.91 3011.76 1028.95 2889.52 1009.59C2836.88 1001.27 2782.8 1001.75 2729.52 1009.59C2660.24 1019.83 2592.72 1041.11 2525.84 1061.27C2389.68 1102.07 2257.2 1135.83 2123.92 1101.91C2019.92 1075.67 1919.6 1047.03 1826.96 999.347C1756.08 962.707 1704.4 907.667 1665.04 839.187C1647.76 808.947 1632.88 776.467 1618.8 742.387C1591.12 674.387 1566.8 603.027 1531.92 542.067C1492.24 472.627 1437.52 417.427 1352.56 398.707C1329.2 393.587 1306.48 391.187 1283.44 392.147C1186.8 396.307 1097.36 456.467 996.4 495.187C951.12 512.627 903.76 524.147 858.8 529.267C808.24 535.027 759.6 532.467 716.72 521.907C634.8 501.587 571.76 454.867 548.24 395.827C528.88 347.027 538 296.467 534.96 240.147C528.88 123.987 482.48 -24.9733 404.4 -164.333C382.8 -203.213 358.48 -241.133 331.76 -277.293C210.16 -441.933 35.9197 -567.053 -138.96 -612.493" stroke="#D4E8F7" stroke-miterlimit="10"/>
<path d="M3187.44 1203.51C3134.48 1090.71 3017.2 1017.59 2894.8 997.907C2842 989.427 2787.92 989.747 2734.48 998.067C2665.2 1008.63 2597.84 1031.03 2531.12 1052.63C2395.12 1096.63 2262.96 1136.15 2128.56 1105.11C2023.6 1081.11 1921.52 1056.15 1826.8 1011.35C1753.84 976.787 1701.04 922.707 1660.56 854.707C1642.8 824.787 1627.44 792.307 1613.04 758.387C1584.56 690.547 1559.44 619.027 1523.6 558.547C1482.8 489.587 1426.96 435.827 1339.76 419.827C1315.92 415.507 1293.04 414.067 1270 415.987C1173.04 424.147 1085.04 488.147 984.08 526.867C938.64 544.307 891.12 555.187 845.52 558.867C794.64 563.027 745.52 558.067 702.8 544.467C621.2 518.547 560.72 463.187 542.32 398.547C526.8 344.307 541.04 290.227 542.8 230.387C546.16 106.867 505.52 -48.6533 429.04 -192.173C407.76 -232.173 383.76 -271.053 356.72 -308.173C234.16 -476.493 52.8796 -600.493 -129.04 -638.573" stroke="#D4E8F7" stroke-miterlimit="10"/>
<path d="M3194.64 1191.51C3139.44 1079.35 3022.64 1006.39 2900.08 986.227C2847.28 977.587 2792.88 977.907 2739.44 986.387C2670.16 997.427 2602.8 1020.63 2536.24 1043.83C2400.56 1090.87 2268.72 1136.15 2133.04 1108.31C2027.12 1086.71 1923.44 1065.27 1826.48 1023.35C1751.28 990.867 1697.36 937.747 1655.92 870.067C1637.68 840.307 1621.84 808.147 1607.12 774.067C1577.84 706.387 1551.76 634.707 1515.12 574.867C1473.2 506.387 1416.08 453.907 1326.8 440.947C1302.64 437.427 1279.28 436.947 1256.24 439.827C1158.8 451.987 1072.24 519.827 971.44 558.707C925.84 576.307 878 586.387 832.08 588.787C780.72 591.347 731.12 584.147 688.56 567.507C607.28 535.827 549.52 472.147 535.92 401.747C524.4 342.067 543.76 284.467 550 221.107C562.96 90.0667 527.92 -72.0134 453.04 -219.533C432.24 -260.653 408.24 -300.653 381.04 -338.413C257.52 -510.413 69.36 -633.133 -119.6 -664.013" stroke="#D4E8F7" stroke-miterlimit="10"/>
<path d="M3201.84 1179.67C3144.4 1068.15 3028.08 995.187 2905.2 974.707C2852.24 965.907 2797.84 966.067 2744.24 974.867C2674.8 986.227 2607.6 1010.55 2541.2 1035.19C2405.84 1085.43 2274.16 1136.47 2137.36 1111.51C2030.32 1092.15 1925.2 1074.39 1826 1035.35C1748.72 1004.95 1693.68 952.627 1651.12 885.587C1632.4 856.147 1616.08 823.987 1600.88 789.907C1570.8 722.227 1543.92 650.547 1506.32 591.187C1463.28 523.347 1405.04 471.987 1313.52 461.907C1289.04 459.187 1265.36 459.667 1242.32 463.507C1144.56 479.827 1059.44 551.187 958.64 590.227C912.88 607.827 864.72 617.267 818.48 618.227C766.64 619.347 716.72 609.587 674.16 589.907C593.2 552.467 538.16 480.627 529.36 404.307C522 339.507 546.48 278.067 557.2 211.027C579.92 72.4666 550.32 -96.0133 477.04 -247.693C456.72 -289.933 432.72 -330.893 405.36 -369.453C281.04 -545.133 85.9998 -666.733 -110.16 -690.413" stroke="#D4E8F7" stroke-miterlimit="10"/>
<path d="M3209.04 1167.67C3149.36 1056.79 3033.52 983.827 2910.48 962.867C2857.52 953.907 2802.96 953.907 2749.2 963.027C2679.76 974.867 2612.72 999.987 2546.32 1026.23C2411.12 1079.67 2279.92 1136.47 2141.84 1114.39C2033.84 1097.27 1926.96 1083.35 1825.68 1047.03C1746.32 1018.71 1690.16 967.347 1646.48 900.787C1627.44 871.507 1610.64 839.507 1594.96 805.427C1563.92 737.907 1536.4 666.227 1497.84 607.187C1453.68 539.827 1394.32 489.907 1300.56 482.547C1275.6 480.627 1251.76 482.227 1228.56 486.867C1130.48 507.187 1046.64 582.387 946 621.427C900.24 639.187 851.6 647.827 805.04 647.347C752.72 646.867 702.48 634.867 659.92 612.147C579.28 568.947 526.96 488.947 523.12 406.707C519.92 336.627 549.36 271.507 564.56 200.947C596.56 55.0267 573.04 -120.013 501.2 -275.853C481.2 -319.373 457.52 -361.293 429.84 -400.493C304.56 -579.533 102.64 -699.853 -100.56 -716.333" stroke="#D4E8F7" stroke-miterlimit="10"/>
<path d="M3216.24 1155.67C3154.32 1045.59 3038.96 972.466 2915.76 951.186C2862.64 942.066 2807.92 942.067 2754.16 951.507C2684.72 963.667 2617.68 989.747 2551.44 1017.59C2416.56 1074.07 2285.52 1136.79 2146.32 1117.59C2037.36 1102.71 1928.88 1092.47 1825.36 1059.19C1743.92 1032.95 1686.64 982.547 1641.84 916.307C1622.32 887.347 1605.04 855.347 1588.88 821.267C1557.04 753.907 1528.72 682.067 1489.04 623.667C1443.76 556.947 1383.28 507.987 1287.28 503.827C1262 502.707 1237.84 505.267 1214.64 511.027C1116.08 535.347 1033.84 614.387 933.2 653.427C887.28 671.347 838.32 679.187 791.28 677.267C738.48 675.187 687.76 660.947 645.36 635.187C565.04 586.387 515.44 498.227 516.4 409.907C517.2 334.707 551.6 265.747 571.6 191.507C613.04 38.0667 595.28 -143.533 525.2 -303.213C505.68 -347.853 482 -390.733 454.16 -430.893C327.6 -613.773 118.8 -732.973 -91.4401 -742.253" stroke="#D4E8F7" stroke-miterlimit="10"/>
<path d="M3223.44 1143.67C3159.44 1034.23 3044.4 961.267 2921.04 939.507C2867.92 930.227 2813.04 930.067 2759.12 939.827C2689.68 952.307 2622.64 979.507 2556.56 1008.79C2422 1068.47 2291.12 1136.95 2150.96 1120.79C2041.04 1108.15 1930.96 1101.59 1825.2 1071.19C1741.68 1047.03 1683.28 997.587 1637.52 931.827C1617.52 903.027 1599.76 871.187 1583.28 837.107C1550.64 769.747 1521.52 697.907 1480.88 639.987C1434.48 573.747 1372.72 526.067 1274.64 524.787C1248.88 524.467 1224.56 527.987 1201.2 534.707C1102.32 563.027 1021.36 645.747 920.88 684.947C874.8 702.867 825.52 710.067 778.16 706.867C724.88 703.187 673.68 686.707 631.6 657.747C551.44 603.347 504.72 507.187 510.48 412.627C515.44 332.467 554.8 259.507 579.28 181.747C630.16 20.7867 618.16 -167.213 549.68 -331.053C530.64 -376.813 506.96 -420.653 479.12 -461.613C351.6 -648.173 135.76 -766.093 -81.5205 -768.333" stroke="#D4E8F7" stroke-miterlimit="10"/>
<path d="M3230.8 1131.83C3164.56 1023.03 3050 950.066 2926.32 927.986C2873.04 918.546 2818 918.227 2764.08 928.307C2694.48 941.267 2627.76 969.267 2561.84 1000.15C2427.44 1063.03 2297.04 1137.11 2155.6 1123.99C2044.72 1113.75 1932.88 1111.03 1825.2 1083.19C1739.6 1061.43 1680.08 1012.63 1633.2 947.187C1612.72 918.547 1594.64 886.867 1577.68 852.787C1544.24 785.587 1514.32 713.587 1472.72 656.147C1425.2 590.387 1362.32 543.987 1262 545.587C1235.92 546.067 1211.28 550.547 1187.92 558.227C1088.72 590.547 1009.2 677.107 908.72 716.467C862.64 734.547 813.04 740.947 765.2 736.307C711.44 731.187 659.92 712.147 617.84 680.307C538 620.147 494 516.147 504.72 415.347C513.84 330.067 558.16 253.427 587.28 171.987C647.6 3.66667 641.36 -190.893 574.48 -358.893C555.76 -405.773 532.4 -450.733 504.24 -492.333C375.76 -682.573 153.04 -799.213 -71.2803 -794.253" stroke="#D4E8F7" stroke-miterlimit="10"/>
<path d="M3238 1119.83C3139.92 965.107 2948.72 882.227 2769.04 916.627C2557.52 957.107 2372.56 1142.23 2160.08 1127.03C2048.24 1119.03 1934.8 1119.99 1824.88 1095.03C1698.96 1066.55 1628.72 980.467 1571.6 868.467C1498.16 724.627 1440.88 557.907 1248.88 566.547C1110 572.787 1019.92 699.347 895.92 747.987C797.68 786.547 682.8 768.787 603.28 702.867C523.76 636.947 482.32 525.107 498 418.067C511.12 327.827 560.4 247.187 594.16 162.067C683.44 -62.8934 657.84 -329.293 528.24 -523.213C398.64 -717.133 169.199 -832.653 -62.3206 -820.333" stroke="#D4E8F7" stroke-miterlimit="10"/>
<path d="M3226.64 1141.91C3127.12 999.346 2937.04 922.227 2758.64 953.747C2669.36 969.427 2584.72 1009.27 2501.2 1047.83C2415.6 1087.51 2331.28 1126.07 2243.28 1137.27C2214.96 1140.95 2186.16 1141.75 2157.04 1138.71C2047.44 1127.35 1936.88 1124.63 1827.44 1098.87C1703.44 1069.75 1631.76 987.187 1572.72 881.427C1559.12 857.107 1546 832.307 1532.56 807.827C1493.2 735.827 1451.28 667.667 1384.88 629.747C1347.76 608.627 1303.12 596.627 1247.6 598.547C1110.48 603.187 1020.88 718.867 900.72 760.467C884.72 765.907 868.4 769.907 851.92 772.467C769.84 784.947 682.96 761.267 619.6 705.587C543.44 638.707 504.08 527.987 518.32 422.067C530.32 332.307 576.56 251.187 607.6 166.067C661.2 19.1866 667.28 -144.493 628.72 -293.293C607.92 -372.813 574.48 -447.853 528.72 -514.093C445.36 -635.053 322.64 -724.493 184.88 -771.693C105.68 -798.893 21.52 -811.693 -62.8 -808.013" stroke="#D4E8F7" stroke-miterlimit="10"/>
<path d="M3215.28 1164.15C3114.32 1033.59 2925.36 962.386 2748.24 991.186C2659.28 1005.59 2574.96 1041.75 2492.24 1075.99C2407.44 1111.19 2324.88 1144.63 2238.32 1152.31C2210.48 1154.87 2182.32 1154.55 2153.84 1150.71C2046.64 1136.15 1938.64 1129.75 1829.84 1102.87C1707.6 1073.11 1634.8 993.747 1573.68 894.387C1559.6 871.507 1545.84 848.307 1532.08 825.427C1491.44 758.227 1449.04 695.187 1382.64 660.307C1345.36 640.787 1301.04 629.427 1246.48 630.707C1111.12 633.747 1021.84 738.707 905.52 773.267C890 777.747 874.32 780.947 858.32 782.707C779.28 791.187 696.24 765.107 635.76 708.787C563.12 640.947 525.52 531.347 538.64 426.387C549.68 337.107 592.56 255.667 620.88 170.387C669.84 23.5067 672.56 -139.533 631.92 -286.573C609.84 -365.453 575.28 -439.533 528.88 -504.653C444.24 -623.533 321.36 -711.053 183.44 -758.093C104.4 -785.133 20.5601 -798.253 -63.6 -795.373" stroke="#D4E8F7" stroke-miterlimit="10"/>
<path d="M3204.08 1186.39C3101.68 1067.99 2913.84 1002.39 2737.84 1028.47C2649.36 1041.43 2565.36 1074.07 2483.44 1104.15C2399.44 1134.87 2318.48 1163.35 2233.68 1167.35C2206.32 1168.63 2178.96 1167.35 2150.96 1162.71C2046 1144.79 1940.88 1134.55 1832.72 1106.87C1712.4 1076.15 1638.16 1000.47 1575.28 907.347C1560.72 885.907 1546.48 864.307 1532.24 843.027C1490.32 780.787 1447.28 722.707 1381.04 690.867C1343.6 672.787 1299.44 662.227 1245.84 662.867C1112.24 664.147 1023.44 758.707 910.96 785.907C896.08 789.587 880.72 791.667 865.52 792.627C789.52 797.267 710.48 768.787 652.88 711.507C583.6 642.707 547.92 534.227 559.76 430.227C569.68 341.267 609.52 259.667 635.12 174.227C679.44 27.1866 679.28 -134.893 636.24 -280.173C613.04 -358.573 577.2 -431.533 530.16 -495.533C444.24 -612.493 321.2 -697.933 182.96 -744.973C104.08 -771.853 20.3999 -785.133 -63.4401 -783.053" stroke="#D4E8F7" stroke-miterlimit="10"/>
<path d="M3192.72 1208.63C3088.88 1102.39 2902.16 1042.55 2727.44 1065.75C2639.28 1077.27 2555.76 1106.55 2474.64 1132.15C2391.6 1158.55 2312.08 1181.75 2228.88 1182.07C2202.16 1182.23 2175.28 1179.99 2147.92 1174.39C2045.36 1153.43 1942.8 1139.19 1835.28 1110.71C1716.88 1079.35 1641.2 1007.03 1576.4 920.147C1561.36 900.147 1546.64 880.147 1531.92 860.627C1488.72 803.187 1445.04 750.227 1378.96 721.267C1341.36 704.787 1297.36 695.187 1244.72 694.867C1112.88 694.227 1024.4 778.227 915.92 798.387C901.52 801.107 886.8 802.387 872.08 802.547C799.12 803.187 723.92 772.307 669.2 714.387C603.44 644.627 569.84 537.267 580.24 434.387C589.2 345.907 625.68 263.827 648.56 178.227C688.24 31.1866 684.88 -130.253 639.76 -273.613C615.28 -351.533 578.48 -423.373 530.64 -486.413C443.44 -601.293 320.08 -684.813 181.84 -731.693C103.12 -758.413 19.7597 -772.013 -63.9203 -770.733" stroke="#D4E8F7" stroke-miterlimit="10"/>
<path d="M3181.36 1230.87C3075.92 1136.63 2890.64 1082.71 2717.04 1103.03C2629.36 1113.11 2546 1138.87 2465.68 1160.15C2383.44 1182.07 2305.68 1200.31 2223.92 1196.95C2197.68 1195.99 2171.44 1192.63 2144.88 1186.23C2044.56 1162.07 1944.88 1143.99 1838 1114.55C1721.52 1082.39 1644.4 1013.43 1577.68 932.947C1562.16 914.227 1546.8 895.987 1531.76 878.067C1487.44 825.427 1443.12 777.747 1376.88 751.667C1339.12 736.787 1295.44 727.507 1243.6 726.867C1113.52 725.267 1025.52 797.907 920.88 811.027C906.96 812.787 892.88 813.107 878.8 812.467C808.88 809.107 737.52 775.987 685.68 717.267C623.28 646.387 591.6 540.307 600.72 438.387C608.56 350.387 642 267.987 662 182.227C696.88 35.1866 690.48 -125.453 643.28 -267.213C617.52 -344.653 579.6 -415.373 531.12 -477.293C442.8 -590.093 319.12 -671.533 180.56 -718.413C101.84 -744.973 18.9601 -758.893 -64.3999 -758.413" stroke="#D4E8F7" stroke-miterlimit="10"/>
<path d="M3170.16 1252.95C3063.28 1170.87 2879.12 1122.55 2706.64 1140.31C2619.28 1148.95 2536.4 1171.19 2456.88 1188.31C2375.44 1205.91 2299.28 1218.87 2219.28 1211.99C2193.52 1209.75 2167.92 1205.59 2142 1198.23C2044.08 1170.71 1946.96 1148.95 1840.72 1118.55C1726.16 1085.75 1647.6 1020.15 1578.96 945.907C1562.96 928.627 1547.12 911.987 1531.6 895.667C1486 847.987 1441.04 805.267 1374.96 782.227C1336.88 768.947 1293.52 760.307 1242.64 759.027C1114.32 755.827 1026.64 817.747 926 823.667C912.56 824.467 899.12 823.987 885.68 822.547C818.8 815.187 751.28 779.827 702.32 720.307C643.44 648.467 613.68 543.667 621.52 442.547C628.4 355.027 658.64 272.147 675.92 186.387C706.16 39.3467 696.56 -120.493 647.28 -260.493C620.24 -337.293 581.2 -407.053 531.92 -467.853C442.32 -578.733 318.48 -658.093 179.76 -704.813C101.2 -731.373 18.4802 -745.453 -64.5598 -745.613" stroke="#D4E8F7" stroke-miterlimit="10"/>
<path d="M3158.8 1275.19C3050.48 1205.11 2867.44 1162.71 2696.24 1177.59C2609.36 1184.79 2526.64 1203.51 2448.08 1216.31C2367.44 1229.43 2293.04 1237.27 2214.48 1226.87C2189.36 1223.51 2164.24 1218.23 2138.96 1210.23C2043.28 1179.51 1949.04 1153.91 1843.44 1122.55C1730.64 1089.11 1650.8 1026.87 1580.24 959.027C1563.76 943.187 1547.44 927.987 1531.44 913.427C1484.72 870.547 1438.96 833.107 1373.04 812.947C1334.8 801.267 1291.6 793.267 1241.84 791.347C1115.28 786.547 1027.92 837.747 931.28 836.467C918.32 836.307 905.36 834.867 892.56 832.627C828.88 821.267 765.04 783.507 718.96 723.347C663.44 650.547 635.6 546.867 642.16 446.867C647.92 359.827 674.8 276.627 689.52 190.707C714.8 43.5067 702.16 -115.533 650.96 -253.613C622.64 -329.933 582.64 -398.573 532.56 -458.413C441.68 -567.213 317.52 -644.653 178.64 -691.373C100.24 -717.773 17.8397 -732.013 -65.0403 -733.133" stroke="#D4E8F7" stroke-miterlimit="10"/>
<path d="M3147.44 1297.43C3037.68 1239.51 2855.76 1203.19 2685.84 1214.87C2599.28 1220.79 2517.04 1235.99 2439.12 1244.31C2359.44 1252.95 2286.48 1255.67 2209.52 1241.75C2184.88 1237.27 2160.4 1231.03 2135.76 1222.07C2042.32 1188.15 1950.8 1158.87 1845.84 1126.55C1734.96 1092.47 1653.52 1033.59 1581.36 971.987C1564.4 957.587 1547.6 943.987 1531.12 931.027C1483.28 893.107 1436.72 860.627 1370.96 843.347C1332.56 833.267 1289.68 825.747 1240.72 823.347C1115.92 816.947 1028.88 857.427 936.24 849.107C923.92 847.987 911.44 845.747 899.28 842.707C838.64 827.347 778.8 787.347 735.44 726.227C683.44 652.467 657.36 549.907 662.8 450.867C667.6 364.147 691.28 280.787 703.28 194.707C723.92 47.5067 708.08 -110.733 654.64 -247.213C625.04 -323.053 583.92 -390.573 533.2 -449.293C441.04 -556.173 316.72 -631.533 177.68 -678.093C99.4397 -704.333 17.3597 -718.893 -65.3604 -720.813" stroke="#D4E8F7" stroke-miterlimit="10"/>
<path d="M3136.24 1319.67C3025.04 1273.75 2844.4 1243.35 2675.44 1252.15C2589.36 1256.63 2507.28 1268.31 2430.32 1272.31C2351.44 1276.63 2280.24 1274.23 2204.88 1256.63C2180.72 1251.03 2156.88 1243.67 2132.88 1233.91C2041.84 1196.63 1953.04 1163.67 1848.56 1130.39C1739.6 1095.67 1656.72 1039.99 1582.64 984.787C1565.2 971.827 1547.76 959.827 1530.96 948.467C1482 915.347 1434.64 888.147 1368.88 873.747C1330.32 865.267 1287.6 858.387 1239.6 855.347C1116.56 847.347 1029.84 876.947 941.04 861.587C929.2 859.507 917.36 856.307 905.68 852.467C848.08 833.107 792.08 790.707 751.6 728.947C702.96 654.227 678.96 552.787 682.96 454.867C686.64 368.627 707.12 284.787 716.4 198.547C732.4 51.3466 713.2 -106.093 657.84 -240.813C626.96 -316.013 584.719 -382.573 533.359 -440.173C440.079 -544.973 315.44 -618.413 176.08 -664.813C97.9995 -690.893 16.0793 -705.773 -66.3207 -708.333" stroke="#D4E8F7" stroke-miterlimit="10"/>
<path d="M3124.88 1341.91C3012.24 1308.15 2832.72 1283.35 2665.04 1289.43C2579.28 1292.47 2497.68 1300.63 2421.52 1300.47C2343.44 1300.31 2273.84 1292.95 2200.08 1271.51C2176.56 1264.63 2153.2 1256.31 2129.84 1245.75C2041.04 1205.27 1954.96 1168.63 1851.28 1134.23C1744.08 1098.87 1659.76 1046.55 1583.92 997.587C1566 986.067 1548.08 975.667 1530.8 965.907C1480.72 937.587 1432.56 915.667 1366.96 904.147C1328.08 897.267 1285.84 891.027 1238.64 887.347C1117.36 877.747 1030.96 896.627 946.16 874.067C934.8 871.027 923.6 867.027 912.56 862.387C858 839.027 805.84 794.387 768.24 731.827C723.12 656.147 700.88 555.827 703.76 458.867C706.32 373.107 723.76 288.947 730.32 202.547C741.52 55.3467 719.28 -101.453 661.84 -234.253C629.52 -308.973 586.48 -374.413 534.32 -431.053C439.76 -533.773 314.96 -605.293 175.44 -651.693C97.5198 -677.613 15.9198 -692.653 -66.1602 -696.173" stroke="#D4E8F7" stroke-miterlimit="10"/>
<path d="M3113.52 1363.99C2999.44 1342.39 2821.04 1323.35 2654.64 1326.71C2569.36 1328.47 2488.08 1332.95 2412.56 1328.47C2335.44 1323.99 2267.44 1311.35 2195.12 1286.39C2172.08 1278.39 2149.36 1269.11 2126.8 1257.59C2040.4 1213.75 1956.88 1173.43 1853.84 1138.23C1748.56 1102.23 1662.64 1053.27 1585.04 1010.55C1566.64 1000.47 1548.24 991.667 1530.48 983.507C1479.28 960.147 1430.32 943.347 1364.88 934.547C1325.84 929.267 1283.76 923.667 1237.68 919.347C1118.16 907.987 1032.08 916.147 951.28 886.707C940.4 882.707 929.68 877.747 919.44 872.307C867.92 844.947 819.6 798.067 785.04 734.707C743.28 658.067 722.96 558.867 724.56 462.867C726 377.587 740.24 293.107 744.08 206.547C750.64 59.3467 725.04 -96.6533 665.68 -227.853C632.08 -301.933 587.92 -366.413 535.12 -421.933C439.28 -522.733 314.16 -592.173 174.48 -638.413C96.7197 -664.173 15.2797 -679.533 -66.4803 -683.853" stroke="#D4E8F7" stroke-miterlimit="10"/>
<path d="M3102.32 1386.23C2986.64 1376.63 2809.52 1363.51 2644.24 1363.99C2559.28 1364.31 2478.32 1365.43 2403.76 1356.47C2327.44 1347.51 2261.04 1329.91 2190.48 1301.27C2167.92 1292.15 2145.84 1281.75 2123.92 1269.43C2039.76 1222.39 1959.12 1178.39 1856.72 1142.07C1753.2 1105.43 1665.84 1059.99 1586.48 1023.35C1567.6 1014.71 1548.72 1007.51 1530.48 1000.95C1478.16 982.387 1428.4 970.867 1363.12 964.947C1323.92 961.427 1282 956.147 1236.88 951.187C1119.12 938.227 1033.36 935.507 956.56 899.027C946.16 894.067 936.08 888.307 926.32 882.067C877.84 850.707 833.52 801.427 801.68 737.267C763.44 659.667 744.88 561.587 745.36 466.707C745.68 381.747 756.88 296.947 758 210.387C759.92 63.1867 730.96 -92.0134 669.68 -221.453C634.8 -295.053 589.52 -358.413 535.92 -412.813C438.8 -511.533 313.52 -578.893 173.68 -625.133C96.08 -650.893 14.9599 -666.413 -66.6401 -671.373" stroke="#D4E8F7" stroke-miterlimit="10"/>
<path d="M3090.96 1408.47C2973.84 1411.03 2797.84 1403.51 2633.84 1401.27C2549.36 1400.15 2468.72 1397.75 2394.96 1384.63C2319.44 1371.19 2254.64 1348.47 2185.68 1316.31C2163.76 1306.07 2142.16 1294.55 2120.88 1281.43C2039.12 1231.03 1961.04 1183.51 1859.28 1146.07C1757.68 1108.79 1668.56 1066.71 1587.76 1036.47C1568.24 1029.27 1549.04 1023.67 1530.32 1018.87C1476.88 1005.11 1426.16 999.027 1361.04 995.827C1321.52 993.907 1280.08 989.267 1235.76 983.667C1119.6 969.107 1034.32 955.507 961.52 911.987C951.6 906.067 942.16 899.347 933.04 892.307C887.6 856.947 847.12 805.427 818.16 740.467C783.28 661.907 766.64 564.947 765.84 471.027C765.2 386.547 773.04 301.427 771.44 214.707C768.72 67.3467 736.56 -86.8934 673.2 -214.573C637.04 -287.693 590.8 -349.933 536.4 -403.213C438.16 -499.853 312.56 -565.293 172.4 -611.373C94.8 -636.973 14.1601 -652.813 -67.2799 -658.573" stroke="#D4E8F7" stroke-miterlimit="10"/>
<path d="M3079.6 1430.71C2961.04 1445.27 2786.16 1443.67 2623.44 1438.55C2539.28 1435.99 2458.96 1430.07 2386 1412.63C2311.28 1394.87 2248.24 1367.03 2180.72 1331.19C2159.28 1319.83 2138.32 1307.19 2117.68 1293.27C2038.16 1239.51 1962.96 1188.31 1861.84 1150.07C1762 1112.15 1671.44 1073.59 1588.88 1049.43C1568.88 1043.67 1549.2 1039.67 1530 1036.47C1475.44 1027.35 1423.92 1024.95 1358.96 1026.23C1319.28 1027.03 1278 1021.91 1234.64 1015.67C1120.24 999.347 1035.28 975.027 966.48 924.467C957.04 917.587 948.24 910.067 939.6 902.227C897.2 862.867 860.56 808.947 834.48 743.347C803.12 663.827 788.24 567.987 786.32 475.027C784.56 391.027 789.36 305.587 785.04 218.547C777.68 71.1866 742.16 -82.2534 676.72 -208.333C639.12 -280.813 591.92 -342.093 536.88 -394.413C437.36 -489.133 311.44 -552.493 171.28 -598.573C93.8399 -624.013 13.3599 -640.013 -67.7601 -646.573" stroke="#D4E8F7" stroke-miterlimit="10"/>
<path d="M3068.4 1452.79C2948.4 1479.51 2774.8 1483.19 2613.04 1475.67C2529.36 1471.51 2449.36 1462.39 2377.2 1440.47C2303.44 1418.23 2241.84 1385.43 2176.08 1345.75C2155.12 1333.11 2134.8 1319.67 2114.8 1304.79C2037.68 1247.83 1965.04 1192.95 1864.56 1153.59C1766.64 1115.19 1674.48 1079.83 1590.16 1061.91C1569.68 1057.59 1549.52 1055.03 1529.84 1053.59C1474.32 1049.27 1421.84 1054.07 1357.04 1056.31C1317.04 1057.75 1276.24 1054.23 1233.84 1047.35C1121.2 1029.43 1036.56 994.227 971.6 936.787C962.8 928.947 954.32 920.467 946.48 911.827C907.12 868.467 874.32 812.307 851.12 745.907C823.12 665.427 810.32 570.707 807.12 478.867C804.24 395.347 806.16 309.427 798.8 222.387C787.12 75.0267 747.92 -77.6134 680.56 -201.933C641.68 -273.933 593.36 -334.093 537.68 -385.293C436.88 -477.933 310.8 -539.373 170.32 -585.293C93.04 -610.573 12.8798 -626.893 -67.9203 -634.253" stroke="#D4E8F7" stroke-miterlimit="10"/>
<path d="M3057.04 1475.03C2935.6 1513.91 2763.12 1523.35 2602.64 1513.11C2519.28 1507.51 2439.76 1494.87 2368.4 1468.79C2295.44 1442.23 2235.6 1404.15 2171.28 1360.95C2150.96 1347.19 2131.28 1332.63 2111.76 1316.95C2036.88 1256.63 1966.96 1198.23 1867.12 1157.75C1770.96 1118.71 1677.36 1087.03 1591.28 1075.03C1570.32 1072.15 1549.68 1071.51 1529.52 1071.35C1472.88 1070.71 1419.6 1081.91 1354.96 1087.03C1314.8 1090.07 1274.16 1087.03 1232.72 1079.67C1121.84 1059.99 1037.68 1013.91 976.56 949.587C968.24 940.787 960.4 931.507 953.2 922.067C916.88 874.707 887.92 816.147 867.6 749.107C843.12 667.667 832.08 574.067 827.6 483.187C823.6 399.987 822.32 313.907 812.4 226.707C795.92 79.3467 753.52 -72.4934 684.24 -195.213C643.92 -266.573 594.8 -325.773 538.32 -375.853C436.4 -466.413 309.999 -525.933 169.359 -571.693C92.2395 -596.813 12.3994 -613.453 -68.2406 -621.613" stroke="#D4E8F7" stroke-miterlimit="10"/>
<path d="M3045.68 1497.27C2922.8 1548.15 2751.44 1563.51 2592.24 1550.39C2509.36 1543.35 2430 1527.19 2359.44 1496.79C2287.28 1465.75 2228.88 1422.87 2166.32 1375.83C2146.48 1360.95 2127.44 1345.27 2108.72 1328.79C2036.24 1265.11 1968.88 1203.19 1869.84 1161.59C1775.6 1122.07 1680.4 1093.75 1592.56 1087.83C1571.12 1086.39 1550 1087.03 1529.36 1088.79C1471.6 1093.91 1417.52 1109.59 1353.04 1117.27C1312.72 1122.07 1272.24 1119.51 1231.76 1111.51C1122.64 1090.07 1038.96 1033.27 981.68 961.907C973.84 952.147 966.64 941.907 959.92 931.667C926.8 880.307 901.68 819.507 884.08 751.507C862.96 668.947 853.84 576.627 848.24 486.707C843.12 403.987 838.8 317.587 826 230.227C804.88 82.8666 759.12 -68.1734 687.92 -189.133C646.32 -259.853 596.08 -318.253 538.96 -367.213C435.76 -455.853 309.2 -513.293 168.24 -558.893C91.2799 -583.853 11.5997 -600.653 -68.7203 -609.613" stroke="#D4E8F7" stroke-miterlimit="10"/>
<path d="M3034.48 1519.51C2910.16 1582.55 2739.92 1603.51 2581.84 1587.67C2499.28 1579.19 2420.4 1559.51 2350.64 1524.79C2279.44 1489.43 2222.64 1441.27 2161.52 1390.71C2142.16 1374.71 2123.76 1357.91 2105.68 1340.63C2035.76 1273.43 1970.8 1208.31 1872.4 1165.59C1779.92 1125.43 1683.28 1099.51 1593.84 1100.95C1571.76 1101.27 1550.16 1103.03 1529.04 1106.55C1470.16 1116.31 1415.28 1137.59 1350.8 1147.99C1310.32 1154.55 1270.16 1152.31 1230.48 1143.83C1123.12 1120.79 1039.76 1053.11 986.48 974.867C979.12 964.147 972.56 953.107 966.48 942.067C936.4 886.707 915.12 823.667 900.4 754.867C882.8 671.347 875.28 580.147 868.56 491.347C862.32 409.107 854.8 322.227 839.28 234.867C813.52 87.3467 764.24 -62.7333 691.28 -181.933C648.24 -252.173 597.04 -309.453 539.28 -357.293C434.8 -443.853 307.92 -499.373 166.96 -544.973C90.1596 -569.773 10.7997 -586.893 -69.3603 -596.653" stroke="#D4E8F7" stroke-miterlimit="10"/>
<path d="M3023.12 1541.75C2897.2 1616.79 2728.24 1643.67 2571.44 1624.95C2489.36 1615.03 2410.64 1591.99 2341.68 1552.95C2271.28 1513.11 2216.08 1459.99 2156.72 1405.75C2137.84 1388.63 2120.08 1370.87 2102.64 1352.63C2034.96 1282.23 1972.72 1213.43 1875.12 1169.59C1784.4 1128.95 1686.32 1107.67 1595.12 1113.91C1572.56 1115.51 1550.48 1119.03 1528.88 1124.15C1468.72 1138.55 1413.36 1165.43 1348.88 1178.55C1308.24 1186.87 1268.24 1185.11 1229.68 1175.99C1124.08 1151.19 1041.2 1072.79 991.76 987.507C984.88 975.827 978.8 963.827 973.36 951.987C946.32 892.627 928.88 827.187 917.2 757.747C902.96 673.267 897.36 583.187 889.52 495.347C882 413.587 871.6 326.387 853.36 238.707C822.96 91.1867 770.16 -57.9334 695.44 -175.693C650.96 -245.293 598.96 -301.613 540.24 -348.333C434.48 -432.973 307.44 -486.253 166.16 -531.853C89.5197 -556.653 10.3197 -573.933 -69.3603 -584.493" stroke="#D4E8F7" stroke-miterlimit="10"/>
<path d="M3011.76 1563.83C2884.4 1651.03 2716.72 1683.67 2561.04 1662.23C2479.28 1650.87 2401.04 1624.31 2332.88 1580.95C2263.28 1536.63 2209.68 1478.55 2151.92 1420.47C2133.68 1402.23 2116.4 1383.35 2099.6 1364.47C2034.32 1290.71 1974.64 1218.55 1877.68 1173.43C1788.72 1132.31 1689.36 1114.55 1596.24 1126.71C1573.2 1129.75 1550.64 1134.71 1528.56 1141.59C1467.28 1160.63 1411.12 1193.11 1346.8 1208.95C1305.84 1219.03 1266.32 1217.59 1228.56 1207.99C1124.88 1181.27 1042.48 1092.15 996.72 999.987C990.48 987.347 984.88 974.547 980.08 961.907C956.08 898.547 942.48 830.867 933.68 760.627C922.96 675.187 919.12 586.227 910 499.347C901.36 418.067 887.76 330.547 866.8 242.707C831.76 95.1866 775.6 -53.1334 698.8 -169.133C652.88 -238.093 599.92 -293.453 540.56 -339.213C433.68 -421.773 306.32 -473.133 164.88 -518.573C88.2399 -543.213 9.51998 -560.813 -70 -572.013" stroke="#D4E8F7" stroke-miterlimit="10"/>
<path d="M3000.4 1586.07C2803.76 1737.59 2519.12 1747.19 2323.92 1608.95C2255.28 1560.31 2203.28 1496.95 2146.96 1435.35C2060.08 1340.15 2001.2 1235.19 1880.24 1177.27C1771.6 1125.27 1641.52 1115.83 1528.4 1159.19C1466 1183.03 1409.04 1220.95 1344.88 1239.35C1174.32 1288.15 1032.4 1118.23 986.8 971.827C940.4 822.707 949.36 659.827 930.48 503.347C904.4 286.547 828.24 19.6666 702.48 -162.573C570.32 -354.253 383.92 -434.733 163.92 -505.293C87.4398 -529.773 9.03952 -547.533 -70.3205 -559.693" stroke="#D4E8F7" stroke-miterlimit="10"/>
</g>
<rect x="1876" y="17" width="44" height="44" fill="#E6F4FF"/>
<rect y="391" width="118" height="118" fill="#E6F4FF"/>
<rect x="1833" y="2" width="29" height="29" fill="#E6F4FF"/>
<rect x="1785" y="633" width="63" height="63" fill="#E6F4FF"/>
<rect y="680" width="63" height="63" fill="#E6F4FF"/>
<rect x="1861" y="564" width="63" height="63" fill="#E6F4FF"/>
<rect x="1821" y="41" width="20" height="20" fill="#E6F4FF"/>
<rect x="1821" y="95" width="13" height="13" fill="#E6F4FF"/>
<rect x="1794" y="18" width="13" height="13" fill="#E6F4FF"/>
<rect x="1736" y="607" width="30" height="30" fill="#E6F4FF"/>
<rect x="67" y="673" width="30" height="30" fill="#E6F4FF"/>
<rect x="93" y="621" width="16" height="16" fill="#E6F4FF"/>
<rect x="1801" y="559" width="30" height="30" fill="#E6F4FF"/>
<rect x="23" y="624" width="30" height="30" fill="#E6F4FF"/>
<rect x="1771" y="61" width="30" height="30" fill="#E6F4FF"/>
<rect x="1876" y="510" width="25" height="25" fill="#E6F4FF"/>
<rect x="1856" y="76" width="39" height="39" fill="#E6F4FF"/>
<rect x="1785" y="462" width="44" height="44" fill="#E6F4FF"/>
<rect x="1865" y="687" width="55" height="55" fill="#E6F4FF"/>
</svg>
